<svg width="48" height="48" viewBox="0 0 48 48" fill="none" xmlns="http://www.w3.org/2000/svg">
<g clip-path="url(#clip0_34_685)">
<path d="M24.2053 -0.000915315C24.9913 -0.000915315 25.7653 0.0500847 26.4853 0.170085C27.1947 0.261462 27.8945 0.416077 28.5763 0.632085C29.2563 0.836085 29.9303 1.09908 30.5983 1.42108C31.2493 1.73008 31.9183 2.10808 32.5873 2.51908C33.7183 3.23908 34.8313 3.82108 35.9653 4.28608C38.1972 5.18141 40.5581 5.71315 42.9583 5.86108C44.1723 5.95108 45.4293 5.99708 46.7293 5.99908V17.9991C46.7293 20.2771 46.4383 22.4431 45.8563 24.4971C45.2972 26.5257 44.5028 28.482 43.4893 30.3261C42.4803 32.1677 41.2861 33.9017 39.9253 35.5011C38.5446 37.1376 37.0488 38.6735 35.4493 40.0971C33.8273 41.5231 32.1213 42.8504 30.3403 44.0721C28.5563 45.3121 26.7623 46.4551 24.9583 47.5011L24.2383 47.9301L23.5183 47.5011C21.6678 46.43 19.8604 45.2861 18.1003 44.0721C16.3098 42.8636 14.6029 41.5355 12.9913 40.0971C11.3929 38.6734 9.89812 37.1375 8.51833 35.5011C7.16218 33.8941 5.96273 32.1613 4.93633 30.3261C3.94111 28.4733 3.14757 26.5192 2.56933 24.4971C1.98751 22.3805 1.69882 20.1941 1.71133 17.9991V5.99908C3.01133 5.99708 4.26933 5.95108 5.48533 5.86108C6.6845 5.77957 7.87585 5.60809 9.04933 5.34808C10.1983 5.09008 11.3473 4.74808 12.4783 4.28608C13.6516 3.8118 14.7768 3.22613 15.8383 2.53708C17.1583 1.67908 18.4963 1.04608 19.8163 0.629085C21.238 0.193753 22.7186 -0.0187657 24.2053 -0.000915315ZM43.7113 8.94808C41.4405 8.83694 39.1909 8.4573 37.0093 7.81708C34.8401 7.16833 32.7736 6.21589 30.8713 4.98808C29.8843 4.34191 28.8133 3.83417 27.6883 3.47908C26.5639 3.13996 25.3948 2.97208 24.2203 2.98108C23.0371 2.97387 21.8594 3.14169 20.7253 3.47908C19.599 3.82359 18.5295 4.33204 17.5513 4.98808C15.645 6.22136 13.5734 7.17789 11.3983 7.82908C9.27233 8.44708 7.04333 8.82508 4.71133 8.96308V18.0141C4.71133 20.0001 4.96933 21.9081 5.48533 23.7381C6.01147 25.555 6.73582 27.3085 7.64533 28.9671C8.56611 30.6427 9.65146 32.2225 10.8853 33.6831C12.1363 35.1561 13.4713 36.5271 14.9113 37.8291C16.3513 39.1311 17.8603 40.3371 19.4383 41.4471C21.0323 42.5591 22.6263 43.5761 24.2203 44.4981C25.8522 43.5497 27.4427 42.5318 28.9873 41.4471C30.5776 40.3401 32.0948 39.1316 33.5293 37.8291C34.9693 36.5271 36.3073 35.1561 37.5583 33.6831C38.7922 32.2225 39.8775 30.6427 40.7983 28.9671C41.7033 27.3103 42.4168 25.5561 42.9253 23.7381C43.4576 21.877 43.7222 19.9497 43.7113 18.0141V8.94808Z" fill="white"/>
<mask id="path-2-inside-1_34_685" fill="white">
<path fill-rule="evenodd" clip-rule="evenodd" d="M35.3924 14.1262L34.0724 12.9922L32.8544 13.0972L19.7744 28.5412L15.3194 22.1812L14.1194 21.9772L12.7304 22.9702L12.5234 24.1702L18.2504 32.3482L18.9014 32.7082L20.2724 32.7922L20.9744 32.4862L35.4794 15.3412L35.3924 14.1262Z"/>
</mask>
<path d="M35.3924 14.1262L41.3771 13.6977L41.1986 11.2041L39.3023 9.57504L35.3924 14.1262ZM34.0724 12.9922L37.9823 8.44103L36.0695 6.79777L33.5571 7.01436L34.0724 12.9922ZM32.8544 13.0972L32.3391 7.11936L29.8746 7.33182L28.2759 9.21946L32.8544 13.0972ZM19.7744 28.5412L14.8601 31.9835L19.3243 38.3565L24.353 32.4189L19.7744 28.5412ZM15.3194 22.1812L20.2337 18.7389L18.7958 16.6861L16.325 16.2661L15.3194 22.1812ZM14.1194 21.9772L15.125 16.0621L12.6622 15.6434L10.63 17.0962L14.1194 21.9772ZM12.7304 22.9702L9.24101 18.0892L7.23661 19.5222L6.81776 21.9502L12.7304 22.9702ZM12.5234 24.1702L6.61076 23.1502L6.19047 25.5867L7.60872 27.6119L12.5234 24.1702ZM18.2504 32.3482L13.3357 35.7899L14.132 36.927L15.3469 37.5988L18.2504 32.3482ZM18.9014 32.7082L15.9979 37.9588L17.1829 38.6141L18.5345 38.697L18.9014 32.7082ZM20.2724 32.7922L19.9055 38.781L21.3465 38.8692L22.6699 38.2924L20.2724 32.7922ZM20.9744 32.4862L23.3719 37.9864L24.6527 37.4281L25.5551 36.3615L20.9744 32.4862ZM35.4794 15.3412L40.0601 19.2165L41.6387 17.3505L41.4641 14.9127L35.4794 15.3412ZM39.3023 9.57504L37.9823 8.44103L30.1626 17.5433L31.4826 18.6773L39.3023 9.57504ZM33.5571 7.01436L32.3391 7.11936L33.3698 19.075L34.5878 18.97L33.5571 7.01436ZM28.2759 9.21946L15.1959 24.6635L24.353 32.4189L37.433 16.9749L28.2759 9.21946ZM24.6887 25.0989L20.2337 18.7389L10.4051 25.6235L14.8601 31.9835L24.6887 25.0989ZM16.325 16.2661L15.125 16.0621L13.1139 27.8923L14.3139 28.0963L16.325 16.2661ZM10.63 17.0962L9.24101 18.0892L16.2199 27.8512L17.6089 26.8582L10.63 17.0962ZM6.81776 21.9502L6.61076 23.1502L18.4361 25.1901L18.6431 23.9901L6.81776 21.9502ZM7.60872 27.6119L13.3357 35.7899L23.1652 28.9064L17.4382 20.7284L7.60872 27.6119ZM15.3469 37.5988L15.9979 37.9588L21.805 27.4575L21.154 27.0975L15.3469 37.5988ZM18.5345 38.697L19.9055 38.781L20.6394 26.8034L19.2684 26.7194L18.5345 38.697ZM22.6699 38.2924L23.3719 37.9864L18.5769 26.986L17.8749 27.292L22.6699 38.2924ZM25.5551 36.3615L40.0601 19.2165L30.8988 11.4659L16.3938 28.6109L25.5551 36.3615ZM41.4641 14.9127L41.3771 13.6977L29.4078 14.5547L29.4948 15.7697L41.4641 14.9127Z" fill="white" mask="url(#path-2-inside-1_34_685)"/>
</g>
<defs>
<clipPath id="clip0_34_685">
<rect width="48" height="48" fill="white"/>
</clipPath>
</defs>
</svg>
