<svg width="48" height="48" viewBox="0 0 48 48" fill="none" xmlns="http://www.w3.org/2000/svg">
<path d="M35.5714 5.14258C35.8282 5.14274 36.0816 5.20059 36.3131 5.31186C36.5445 5.42313 36.748 5.58497 36.9085 5.78544L37.0371 5.96715L44.3228 17.9671C44.4903 18.2426 44.5767 18.5597 44.5722 18.882C44.5676 19.2043 44.4723 19.5188 44.2971 19.7894L44.1651 19.9643L25.3079 42.25C25.1584 42.4266 24.9746 42.5711 24.7677 42.6748C24.5609 42.7784 24.3351 42.8392 24.1041 42.8532C23.8732 42.8673 23.6417 42.8345 23.4238 42.7568C23.2058 42.679 23.0058 42.558 22.8359 42.4009L22.6919 42.25L3.83479 19.9643C3.62679 19.7182 3.49233 19.4185 3.44685 19.0996C3.40137 18.7806 3.4467 18.4553 3.57765 18.1609L3.67708 17.9671L10.9628 5.96715C11.096 5.74752 11.2768 5.56062 11.4919 5.42027C11.7071 5.27992 11.951 5.1897 12.2057 5.15629L12.4285 5.14258H35.5714ZM30.0257 20.5711H17.9725L23.9982 35.4374L30.0257 20.5711ZM39.1611 20.5711H33.7251L28.7245 32.9054L39.1611 20.5711ZM14.2731 20.5711H8.83708L19.2719 32.902L14.2731 20.5711ZM16.5839 8.57115H13.3902L8.18565 17.1426H14.1342L16.5839 8.57115ZM27.8502 8.57115H20.1479L17.6982 17.1426H30.2999L27.8502 8.57115ZM34.6079 8.57115H31.4142L33.8639 17.1426H39.8125L34.6079 8.57115Z" fill="white"/>
</svg>
