<svg width="29" height="29" viewBox="0 0 29 29" fill="none" xmlns="http://www.w3.org/2000/svg">
<path d="M16.2059 0.423828V2.35227C18.1133 2.35227 19.9002 2.83437 21.5666 3.79859C23.1528 4.74272 24.4177 6.00826 25.3613 7.5952C26.3251 9.2625 26.8069 11.0503 26.8069 12.9587H28.7344C28.7344 10.6887 28.1622 8.57951 27.0177 6.63098C25.9135 4.74272 24.4177 3.24618 22.5304 2.14134C20.5828 0.996333 18.4747 0.423828 16.2059 0.423828ZM6.23733 3.31648C5.69524 3.31648 5.22341 3.48723 4.82186 3.82872L1.71985 6.99257L1.8102 6.9323C1.30826 7.35415 0.97698 7.87643 0.816359 8.49916C0.675815 9.12188 0.71597 9.72452 0.936825 10.3071C1.499 11.8739 2.25191 13.481 3.19556 15.1282C4.52069 17.3981 6.09679 19.437 7.92386 21.2449C10.8552 24.1978 14.4993 26.528 18.8562 28.2355H18.8863C19.4685 28.4364 20.0508 28.4766 20.633 28.356C21.2354 28.2355 21.7674 27.9744 22.2292 27.5726L25.271 24.5293C25.6725 24.1275 25.8733 23.6354 25.8733 23.0528C25.8733 22.4502 25.6725 21.948 25.271 21.5462L21.3257 17.5688C20.9242 17.1671 20.4222 16.9662 19.8199 16.9662C19.2176 16.9662 18.7156 17.1671 18.3141 17.5688L16.4167 19.4973C14.8908 18.7741 13.5657 17.8802 12.4413 16.8155C11.317 15.7308 10.4235 14.415 9.76097 12.8683L11.6884 10.9398C12.1101 10.4979 12.3209 9.97562 12.3209 9.37298C12.3209 8.75026 12.0799 8.24806 11.5981 7.86639L11.6884 7.95678L7.65281 3.82872C7.25126 3.48723 6.77943 3.31648 6.23733 3.31648ZM16.2059 4.2807V6.20914C17.4306 6.20914 18.555 6.51046 19.579 7.11309C20.623 7.71573 21.4462 8.53933 22.0485 9.5839C22.6508 10.6084 22.952 11.7333 22.952 12.9587H24.8795C24.8795 11.3918 24.4879 9.93544 23.7049 8.58955C22.9219 7.28384 21.8778 6.23927 20.5728 5.45584C19.2276 4.67242 17.772 4.2807 16.2059 4.2807ZM6.23733 5.24492C6.29757 5.24492 6.36784 5.27505 6.44815 5.33532L10.3934 9.37298C10.4135 9.45333 10.3934 9.52364 10.3332 9.5839L7.47211 12.4163L7.68293 13.0189L8.07444 13.8626C8.39568 14.5456 8.76712 15.2085 9.18875 15.8513C9.771 16.7553 10.4135 17.5287 11.1162 18.1715C12.0599 19.0955 13.1942 19.9392 14.5194 20.7025C15.1819 21.0842 15.7441 21.3654 16.2059 21.5462L16.8082 21.8174L19.7295 18.8946C19.7697 18.8545 19.7998 18.8344 19.8199 18.8344C19.84 18.8344 19.8701 18.8545 19.9102 18.8946L23.976 22.9624C24.0161 23.0026 24.0362 23.0327 24.0362 23.0528C24.0362 23.0528 24.0161 23.0729 23.976 23.1131L20.9643 26.0961C20.5226 26.4778 20.0407 26.5783 19.5187 26.3975C15.4229 24.8105 12.0097 22.641 9.2791 19.889C7.59258 18.2016 6.11687 16.2832 4.85197 14.1338C3.94848 12.587 3.24576 11.0905 2.74382 9.64417V9.61404C2.66351 9.43324 2.65347 9.22232 2.7137 8.98127C2.77393 8.72012 2.88436 8.51925 3.04498 8.37863L6.02652 5.33532C6.08675 5.27505 6.15702 5.24492 6.23733 5.24492ZM16.2059 8.13758V10.066C17.009 10.066 17.6917 10.3472 18.2538 10.9097C18.816 11.4722 19.0971 12.1552 19.0971 12.9587H21.0245C21.0245 12.0949 20.8037 11.2914 20.362 10.5481C19.9403 9.80487 19.3581 9.22232 18.6152 8.80048C17.8723 8.35854 17.0692 8.13758 16.2059 8.13758Z" fill="black"/>
</svg>
