<svg width="86" height="86" viewBox="0 0 86 86" fill="none" xmlns="http://www.w3.org/2000/svg">
<path fill-rule="evenodd" clip-rule="evenodd" d="M34.356 38.7847C34.1552 38.9077 33.9806 39.069 33.8422 39.2595C33.7038 39.45 33.6043 39.6659 33.5494 39.8948C33.4945 40.1238 33.4853 40.3613 33.5222 40.5939C33.5592 40.8264 33.6416 41.0494 33.7648 41.25C35.4113 43.934 36.8106 46.5982 37.7423 49.0187C37.9129 49.4623 38.2527 49.8199 38.687 50.013C39.1212 50.206 39.6144 50.2186 40.058 50.048C40.5016 49.8774 40.8592 49.5376 41.0523 49.1033C41.2453 48.669 41.2579 48.1759 41.0873 47.7323C40.0517 45.0376 38.5324 42.1692 36.8196 39.376C36.5712 38.9709 36.1722 38.6811 35.7102 38.5702C35.2482 38.4593 34.7611 38.5365 34.356 38.7847ZM53.0144 37.0755C53.3978 37.3559 53.6541 37.7771 53.727 38.2464C53.7999 38.7158 53.6834 39.1949 53.4032 39.5784C51.3303 42.4146 49.5046 46.2076 48.2199 49.1029C48.1244 49.318 47.9875 49.5121 47.8169 49.6742C47.6464 49.8363 47.4456 49.9633 47.2259 50.0478C47.0063 50.1323 46.7722 50.1728 46.537 50.1668C46.3018 50.1608 46.07 50.1086 45.8549 50.0131C45.6399 49.9176 45.4458 49.7806 45.2836 49.6101C45.1215 49.4395 44.9946 49.2387 44.9101 49.0191C44.8255 48.7995 44.7851 48.5654 44.7911 48.3301C44.797 48.0949 44.8493 47.8631 44.9448 47.6481C46.2419 44.7277 48.1949 40.6319 50.5115 37.4642C50.7919 37.0809 51.2131 36.8246 51.6825 36.7517C52.1518 36.6788 52.6309 36.7953 53.0144 37.0755Z" fill="#54BD95"/>
<path fill-rule="evenodd" clip-rule="evenodd" d="M48.805 21.5663C53.0011 16.7682 75.4381 10.75 75.4381 10.75C75.4381 10.75 71.6237 34.7494 68.2679 38.5871C65.7685 41.4466 57.8045 39.6603 53.9023 38.562C56.8191 34.0883 60.2 29.7184 63.1724 26.2497C63.4756 25.8883 63.6241 25.4218 63.5855 24.9516C63.5469 24.4813 63.3244 24.0453 62.9663 23.7382C62.6082 23.431 62.1433 23.2775 61.6727 23.311C61.2021 23.3444 60.7637 23.5622 60.4526 23.917C57.4552 27.4143 53.9811 31.8899 50.9389 36.5428C49.2296 33.3608 45.4868 25.361 48.805 21.5663ZM19.7083 53.75H10.75V75.25H19.7083V71.5896C21.5358 71.5144 24.2341 71.4176 25.1675 71.4553C28.3693 71.586 30.7575 72.3493 33.1763 73.1215C35.4302 73.84 37.7074 74.5674 40.687 74.7949C41.4359 74.8522 42.1651 74.9257 42.8728 74.9956C45.4223 75.2536 47.6852 75.4829 49.5557 74.7949C51.9422 73.917 65.584 67.2395 67.2896 65.4818C68.9953 63.726 68.1425 58.9817 62.8553 59.8596C60.2466 60.2932 57.224 61.5402 54.481 62.6707C51.6663 63.8299 49.1472 64.8691 47.678 64.7795C44.7791 64.6039 37.1072 63.1992 37.1072 63.1992L45.9168 63.3068C45.9168 63.3068 47.162 63.3713 48.8731 62.144C50.5841 60.9167 52.1124 57.3996 49.5539 57.3996C46.9954 57.3996 44.2685 56.5217 44.2685 56.5217L33.3537 54.0618C33.3537 54.0618 29.6019 53.3594 28.0683 54.0618C26.8033 54.6405 21.5323 56.5289 19.7083 57.1793V53.75ZM15.9064 17.3254C15.9064 17.3254 34.4233 22.2919 37.8848 26.2497C40.5598 29.3081 37.677 35.6775 36.2257 38.4187C34.3236 35.4318 32.2701 32.544 30.0731 29.7668C29.9274 29.5821 29.7467 29.4279 29.5413 29.313C29.336 29.1982 29.11 29.1249 28.8763 29.0973C28.6427 29.0698 28.4059 29.0886 28.1794 29.1525C27.953 29.2165 27.7414 29.3245 27.5567 29.4702C27.372 29.616 27.2178 29.7967 27.103 30.002C26.9881 30.2074 26.9148 30.4333 26.8873 30.667C26.8598 30.9007 26.8785 31.1375 26.9425 31.3639C27.0065 31.5903 27.1145 31.8019 27.2602 31.9866C29.3955 34.6862 31.3905 37.4939 33.2372 40.3985C29.8904 41.3051 23.7951 42.5539 21.8243 40.2982C19.0544 37.1305 15.9064 17.3236 15.9064 17.3236" fill="#54BD95"/>
</svg>
