<svg width="30" height="30" viewBox="0 0 30 30" fill="none" xmlns="http://www.w3.org/2000/svg">
<path fill-rule="evenodd" clip-rule="evenodd" d="M15 1.875C12.265 1.875 9.64193 2.96149 7.70796 4.89546C5.77399 6.82943 4.6875 9.45246 4.6875 12.1875V14.0625C4.6875 15.0525 5.09063 16.0031 5.51813 16.7362C5.95125 17.4844 6.4725 18.1106 6.83625 18.4762L9.49313 21.1313L10.575 24.375H19.425L20.5069 21.1313L23.1637 18.4762C23.5275 18.1106 24.0487 17.4825 24.4819 16.7362C24.9094 16.0031 25.3125 15.0525 25.3125 14.0625V12.1875C25.3125 9.45246 24.226 6.82943 22.292 4.89546C20.3581 2.96149 17.735 1.875 15 1.875ZM17.5387 10.0387L16.2113 8.71125L12.7369 12.1875L14.6119 14.0625L12.4612 16.2113L13.7887 17.5387L17.2631 14.0625L15.3881 12.1875L17.5387 10.0387Z" fill="#54BD95"/>
<path d="M18.75 28.125V26.25H11.25V28.125H18.75Z" fill="#54BD95"/>
</svg>
