<svg width="28" height="28" viewBox="0 0 28 28" fill="none" xmlns="http://www.w3.org/2000/svg">
<g clip-path="url(#clip0_12_838)">
<path d="M10.5026 11.6654C11.1469 11.6654 11.6693 11.143 11.6693 10.4987C11.6693 9.85437 11.1469 9.33203 10.5026 9.33203C9.85827 9.33203 9.33594 9.85437 9.33594 10.4987C9.33594 11.143 9.85827 11.6654 10.5026 11.6654Z" stroke="black" stroke-width="2" stroke-linecap="round" stroke-linejoin="round"/>
<path d="M17.5026 18.6654C18.1469 18.6654 18.6693 18.143 18.6693 17.4987C18.6693 16.8544 18.1469 16.332 17.5026 16.332C16.8583 16.332 16.3359 16.8544 16.3359 17.4987C16.3359 18.143 16.8583 18.6654 17.5026 18.6654Z" stroke="black" stroke-width="2" stroke-linecap="round" stroke-linejoin="round"/>
<path d="M9.33259 10.4995C9.33259 12.6654 10.193 14.7427 11.7245 16.2742C13.2561 17.8057 15.3333 18.6662 17.4993 18.6662M6.99925 24.7328C9.65716 26.4674 12.8636 27.1556 15.9992 26.6644C19.1348 26.1732 21.9772 24.5375 23.9773 22.0732C25.9775 19.6089 26.9935 16.4909 26.8292 13.3213C26.6649 10.1517 25.3318 7.15541 23.0876 4.91115C20.8433 2.6669 17.8471 1.33389 14.6775 1.16957C11.5079 1.00525 8.38982 2.02128 5.92553 4.02144C3.46124 6.02159 1.82554 8.86396 1.33434 11.9996C0.84315 15.1352 1.53131 18.3416 3.26592 20.9995L2.33259 25.6662L6.99925 24.7328Z" stroke="black" stroke-width="2" stroke-linecap="round" stroke-linejoin="round"/>
</g>
<defs>
<clipPath id="clip0_12_838">
<rect width="28" height="28" fill="white"/>
</clipPath>
</defs>
</svg>
